<?xml version="1.0" encoding="UTF-8"?>
<svg version="1.1" xmlns="http://www.w3.org/2000/svg" width="450" height="250">
<!--<path d="M0 0 C148.5 0 297 0 450 0 C450 82.5 450 165 450 250 C301.5 250 153 250 0 250 C0 167.5 0 85 0 0 Z " fill="#FEFEFD" transform="translate(0,0)"/>-->
<path d="M0 0 C0.66 0 1.32 0 2 0 C3.26660762 1.64421131 4.46305546 3.3427295 5.625 5.0625 C11.44581075 13.2430989 18.45483186 18.8118622 27 24 C27.99773437 24.60908203 27.99773437 24.60908203 29.015625 25.23046875 C31.54232737 26.21031199 32.5021819 26.01443954 35 25 C36.57792595 23.97019569 38.11702156 22.87975583 39.625 21.75 C50.70629918 13.84404386 63.11125054 8.56132476 77 10 C77.99 10.495 77.99 10.495 79 11 C78.67524624 14.03103507 78.07452502 14.93375554 75.75 17 C74.8425 17.66 73.935 18.32 73 19 C72.30519531 19.64453125 71.61039062 20.2890625 70.89453125 20.953125 C67.09737575 23.63829299 63.41104381 24.62907552 58.9375 25.75 C58.09856201 25.9668042 57.25962402 26.1836084 56.39526367 26.40698242 C49.87661418 27.99675959 43.71128452 28.60280999 37 28 C37 28.66 37 29.32 37 30 C51.3535265 33.16544965 65.27660596 35.79315794 80 36 C80.37125 34.68322266 80.37125 34.68322266 80.75 33.33984375 C84.5297248 23.24089155 93.73379855 15.43605119 103.3046875 10.91015625 C106.30125649 9.71921216 108.76082697 9 112 9 C110.8587805 17.23411535 104.36648423 22.98401849 98.3828125 28.296875 C94.78183425 30.87068896 90.89537425 32.90786593 87 35 C87.66829834 34.97905273 88.33659668 34.95810547 89.02514648 34.93652344 C105.80747723 34.48158507 120.48781973 35.04145127 136 42 C136 42.66 136 43.32 136 44 C137.32 44.66 138.64 45.32 140 46 C137.39679596 48.60320404 135.48510123 48.31133766 131.93139648 48.38037109 C120.05414398 48.35413356 112.86972106 46.09988435 103.1015625 39.265625 C100.09880549 37.45727319 97.4723353 37.06808501 94 37 C93.38157227 37.15718506 92.76314453 37.31437012 92.12597656 37.47631836 C89.65154711 38.08583273 87.34282197 38.21279213 84.796875 38.31640625 C83.8171875 38.35830078 82.8375 38.40019531 81.828125 38.44335938 C80.81234375 38.48267578 79.7965625 38.52199219 78.75 38.5625 C77.203125 38.62727539 77.203125 38.62727539 75.625 38.69335938 C73.0834613 38.79925682 70.54182804 38.90133443 68 39 C68.51731689 39.24959473 69.03463379 39.49918945 69.56762695 39.75634766 C77.72271262 43.75125355 85.90012624 48.26793333 91 56 C91.8125 59.375 91.8125 59.375 92 62 C82.08284601 61.449047 74.62246488 57.40820531 67.7890625 50.26171875 C65.86949203 47.83501285 64.54325228 45.3703878 63.125 42.625 C61.18076852 39.1453743 61.18076852 39.1453743 57.93359375 37.0625 C55.54185804 36.58906435 55.54185804 36.58906435 53.01171875 36.359375 C49.17833535 35.90195441 45.5879088 34.9075556 41.875 33.875 C40.55996039 33.51799127 39.24486135 33.16120135 37.9296875 32.8046875 C36.96289062 32.53914063 35.99609375 32.27359375 35 32 C35.45890625 32.45890625 35.9178125 32.9178125 36.390625 33.390625 C37.65950671 34.65950671 38.92634836 35.93043095 40.19140625 37.203125 C41.49487474 38.49814769 42.83143077 39.76016528 44.1875 41 C49.27396279 46.6126486 50.66475218 51.60778548 51 59 C42.9844879 56.49515247 37.30935288 51.00269843 33 44 C33 43.34 33 42.68 33 42 C32.34 42 31.68 42 31 42 C30.16280617 39.70967689 29.3301071 37.41789043 28.5 35.125 C28.26152344 34.47402344 28.02304687 33.82304687 27.77734375 33.15234375 C26 28.2265625 26 28.2265625 26 26 C24.68 25.67 23.36 25.34 22 25 C22 24.34 22 23.68 22 23 C20.948125 22.66742188 20.948125 22.66742188 19.875 22.328125 C16.34262421 20.69632097 13.79249122 18.39365285 11 15.75 C10.23816406 15.05197266 10.23816406 15.05197266 9.4609375 14.33984375 C5.99294833 11.11194614 2.8098398 7.82220855 0 4 C0 2.68 0 1.36 0 0 Z " fill="#747C41" transform="translate(243,163)"/>
<path d="M0 0 C10.63122047 1.71471298 19.13164657 6.64989519 26 15 C31 21.99238579 31 21.99238579 31 25 C32.11117187 25.18175781 33.22234375 25.36351563 34.3671875 25.55078125 C42.41635947 26.89969835 50.26353483 28.31979954 58 31 C57.25556641 30.41605469 57.25556641 30.41605469 56.49609375 29.8203125 C49.64314069 24.17670409 43.91467505 17.50580651 41 9 C40.875 6.1875 40.875 6.1875 41 4 C49.77845994 7.12957574 56.28856648 13.21658741 60.7890625 21.28515625 C62.093594 24.20983171 62.90964027 27.0997562 63.75 30.1875 C65.56173512 36.03276887 68.06554998 38.16938394 73.203125 41.29296875 C80.62187248 45.82089145 87.66815466 51.38192717 92 59 C92 60.32 92 61.64 92 63 C91.34 63 90.68 63 90 63 C89.09213132 61.63819699 88.18843895 60.27349997 87.30078125 58.8984375 C81.33961024 50.19835009 73.83589012 44.52827517 65 39 C64.31421875 38.56558594 63.6284375 38.13117188 62.921875 37.68359375 C60.19010144 36.71192633 58.75150814 37.10046849 56 38 C53.87629325 39.20215006 51.79519025 40.48115031 49.75 41.8125 C37.53528661 49.55950801 27.4829318 52.44110452 13 52 C13 48 13 48 14.80078125 46 C24.80807794 38.03151492 34.14191402 35.64552632 46.59375 34.39453125 C49.9813701 34.12008525 49.9813701 34.12008525 53 33 C43.37379389 30.22269123 33.99124177 28.03397735 24 27 C22.91203125 26.83371094 21.8240625 26.66742188 20.703125 26.49609375 C17.46460334 26.1778808 15.12550236 26.07634408 12 27 C9.65406004 29.52433843 8.18236278 32.0721323 6.5625 35.109375 C2.41055029 42.79048196 -4.50122489 46.94287377 -12 51 C-12.67675781 51.38542969 -13.35351562 51.77085938 -14.05078125 52.16796875 C-16 53 -16 53 -20 53 C-19.49357808 48.64477147 -18.61588503 45.55760365 -16 42 C-15.34 42 -14.68 42 -14 42 C-13.74605469 41.401875 -13.49210937 40.80375 -13.23046875 40.1875 C-9.99139218 34.42914166 -2.65006403 31.06045135 3 28 C1.02 27.67 -0.96 27.34 -3 27 C0.33991379 25.00862881 2.99863865 24.70412331 6.859375 24.5859375 C7.97441406 24.54726562 9.08945312 24.50859375 10.23828125 24.46875 C11.39714844 24.4378125 12.55601562 24.406875 13.75 24.375 C15.51150391 24.31699219 15.51150391 24.31699219 17.30859375 24.2578125 C20.20557268 24.1636018 23.10254626 24.07798398 26 24 C25.04738281 23.62488281 24.09476562 23.24976562 23.11328125 22.86328125 C21.84608439 22.34701586 20.57917218 21.83005137 19.3125 21.3125 C18.68666016 21.06822266 18.06082031 20.82394531 17.41601562 20.57226562 C12.98730903 18.74049693 10.22254468 16.50152823 7 13 C6.113125 12.4225 5.22625 11.845 4.3125 11.25 C0.9755983 8.00328483 0.64365513 4.49597915 0 0 Z " fill="#91976D" transform="translate(316,54)"/>
<path d="M0 0 C-0.33 0.99 -0.66 1.98 -1 3 C-2.98 3 -4.96 3 -7 3 C-7.66 7.29 -8.32 11.58 -9 16 C-8.01 16 -7.02 16 -6 16 C-5.7525 15.4225 -5.505 14.845 -5.25 14.25 C-3.76175216 11.57115389 -2.42736366 9.88794951 0 8 C3.96585158 7.50426855 6.59575912 7.90508254 10 10 C10.33 9.67 10.66 9.34 11 9 C13.35313555 8.92728259 15.70833668 8.91629132 18.0625 8.9375 C19.99802734 8.95103516 19.99802734 8.95103516 21.97265625 8.96484375 C22.97167969 8.97644531 23.97070312 8.98804688 25 9 C25.495 13.455 25.495 13.455 26 18 C27.485 18.495 27.485 18.495 29 19 C27.3125 20.5625 27.3125 20.5625 25 22 C22.25 21.6875 22.25 21.6875 20 21 C20.33 18.03 20.66 15.06 21 12 C20.34 12 19.68 12 19 12 C17.47700477 14.93720508 16.19899698 17.9168649 15 21 C14.01 21 13.02 21 12 21 C11.875 14.375 11.875 14.375 13 11 C10.47636012 11.62533375 10.47636012 11.62533375 8 13 C7.61781233 14.65614657 7.28604898 16.32457024 7 18 C4.80705912 20.12755503 3.52126262 20.9471531 0.45703125 21.2578125 C-0.41566406 21.21398437 -1.28835938 21.17015625 -2.1875 21.125 C-3.79066195 21.05458293 -5.39530295 21.00584589 -7 21 C-7.495 21.495 -7.495 21.495 -8 22 C-10.67058851 22.14115161 -13.32432238 22.04247107 -16 22 C-16.66 20.68 -17.32 19.36 -18 18 C-18.86625 18.66 -19.7325 19.32 -20.625 20 C-24.27915896 22.16542753 -25.8565137 22.45037895 -30 22 C-30.70125 21.814375 -31.4025 21.62875 -32.125 21.4375 C-33.98146555 20.8538567 -33.98146555 20.8538567 -35.75 21.4375 C-40.24987635 22.56246909 -44.40806657 22.91536172 -48.5 20.5625 C-50.38782498 17.33746566 -50.81489 14.97873962 -50.63671875 11.26171875 C-49.60767729 7.60641196 -47.49008183 6.03984741 -44.37890625 4.01953125 C-40.56487198 2.38494513 -37.0625009 2.49218739 -33 3 C-32.67 4.32 -32.34 5.64 -32 7 C-34.01822917 6.70703125 -36.03645833 6.4140625 -38.0546875 6.12109375 C-40.08140667 5.8315703 -40.08140667 5.8315703 -42 7 C-43.1577506 10.47325181 -43.06866652 13.36067448 -43 17 C-40.03 17.33 -37.06 17.66 -34 18 C-33.01 16.02 -32.02 14.04 -31 12 C-30.34 12 -29.68 12 -29 12 C-29 11.34 -29 10.68 -29 10 C-25.48746854 7.65831236 -24.13530644 7.50376323 -20 8 C-17.125 10 -17.125 10 -15 12 C-14.731875 11.278125 -14.46375 10.55625 -14.1875 9.8125 C-10.9756965 2.20559697 -8.49196817 -0.32045163 0 0 Z " fill="#C7BF68" transform="translate(293,126)"/>
<path d="M0 0 C0.029729 0.84594727 0.029729 0.84594727 0.06005859 1.70898438 C0.15631811 4.30639574 0.26558052 6.90311103 0.375 9.5 C0.4059375 10.386875 0.436875 11.27375 0.46875 12.1875 C0.71319978 17.72836176 1.46738245 22.66698933 3 28 C4.65 28.33 6.3 28.66 8 29 C8 29.99 8 30.98 8 32 C5.00519083 32.8723412 2.36424089 33.10829766 -0.75 33.0625 C-2.85375 33.0315625 -2.85375 33.0315625 -5 33 C-5 29.7 -5 26.4 -5 23 C-8.96 23 -12.92 23 -17 23 C-17.66 24.32 -18.32 25.64 -19 27 C-24.47689409 32.88766114 -24.47689409 32.88766114 -28.27734375 33.16796875 C-29.15519531 33.17441406 -30.03304687 33.18085938 -30.9375 33.1875 C-32.25041016 33.20876953 -32.25041016 33.20876953 -33.58984375 33.23046875 C-36 33 -36 33 -39 31 C-38.505 29.515 -38.505 29.515 -38 28 C-37.01 27.67 -36.02 27.34 -35 27 C-34.34 27.33 -33.68 27.66 -33 28 C-29.32670036 28.13357453 -26.50147041 28.1671568 -23 27 C-21.9307669 25.16983477 -21.9307669 25.16983477 -21 23 C-20.08135323 21.54353466 -19.13957609 20.1014963 -18.1796875 18.671875 C-17.64472656 17.87265625 -17.10976563 17.0734375 -16.55859375 16.25 C-16.00300781 15.425 -15.44742188 14.6 -14.875 13.75 C-14.03001953 12.48929688 -14.03001953 12.48929688 -13.16796875 11.203125 C-11.78072151 9.13401047 -10.39133629 7.06636617 -9 5 C-14.51740116 5.13918988 -14.51740116 5.13918988 -18.98828125 7.84765625 C-19.42527344 8.57855469 -19.86226562 9.30945313 -20.3125 10.0625 C-21.67578125 12.28515625 -21.67578125 12.28515625 -23 14 C-23.99 14 -24.98 14 -26 14 C-25.92478893 10.84113505 -25.62522327 8.69915712 -23.48046875 6.30078125 C-18.95079122 2.36234584 -15.58978372 0.95272235 -9.5625 0.4375 C-8.61503906 0.35371094 -7.66757812 0.26992187 -6.69140625 0.18359375 C-4.46527149 0.0317384 -2.23130814 0 0 0 Z " fill="#B3A836" transform="translate(71,115)"/>
<path d="M0 0 C-0.31316272 2.97504584 -0.8251203 3.85759796 -3.1875 5.78125 C-16.27960146 13.78197867 -26.55858446 17.47029692 -42 17 C-42 13 -42 13 -40.19921875 11 C-27.57240758 0.94568068 -15.65558087 -0.21478693 0 0 Z " fill="#717A3D" transform="translate(371,89)"/>
<path d="M0 0 C1.98 0 3.96 0 6 0 C5.67 0.99 5.34 1.98 5 3 C5.680625 3.103125 6.36125 3.20625 7.0625 3.3125 C16.79500723 5.59032084 26.45733946 11.59661144 32 20 C32.8125 23.375 32.8125 23.375 33 26 C23.230107 25.45722817 15.59952564 21.51701193 8.89453125 14.40234375 C5.37465849 9.93899994 2.6692408 5.00482649 0 0 Z " fill="#717A3E" transform="translate(302,199)"/>
<path d="M0 0 C15.52575702 -0.76356182 27.42492042 2.62953747 40 12 C40 12.66 40 13.32 40 14 C25.29898238 14.53029723 10.56860644 12.85008157 -1 3 C-0.67 2.01 -0.34 1.02 0 0 Z " fill="#777F45" transform="translate(269,68)"/>
<path d="M0 0 C-1.99134906 9.84611478 -10.09811406 16.53840237 -18 22 C-18.66 22 -19.32 22 -20 22 C-20.33 22.99 -20.66 23.98 -21 25 C-24.75907641 26.62323754 -27.92086213 27.23994929 -32 27 C-27.55150294 16.55570255 -18.64060351 5.73421431 -7.984375 1.12890625 C-5.26254905 0.2997786 -2.84548252 0 0 0 Z " fill="#6E7739" transform="translate(387,169)"/>
<path d="M0 0 C0.99 0 1.98 0 3 0 C1.79963244 8.56762348 -5.2698957 14.78886618 -11.59375 20.203125 C-16.65878688 23.98545773 -21.60700411 27 -28 27 C-27.49357808 22.64477147 -26.61588503 19.55760365 -24 16 C-23.34 16 -22.68 16 -22 16 C-21.74605469 15.401875 -21.49210937 14.80375 -21.23046875 14.1875 C-18.06830216 8.5658705 -10.6601524 4.77667853 -5 2 C-2.0625 1.75 -2.0625 1.75 0 2 C0 1.34 0 0.68 0 0 Z " fill="#737B3F" transform="translate(324,80)"/>
<path d="M0 0 C-4.92904862 10.25440265 -12.04932177 19.82203039 -23 24 C-23.99 24 -24.98 24 -26 24 C-26 24.66 -26 25.32 -26 26 C-27.65 26 -29.3 26 -31 26 C-30.66008674 20.56138782 -27.56748531 16.86596018 -24 13 C-21.42159688 10.8188735 -18.79272122 8.7650397 -16.07421875 6.76171875 C-13.74172264 5.08910471 -13.74172264 5.08910471 -13 2 C-8.60470084 0.01165038 -4.77962147 -0.19118486 0 0 Z " fill="#71793C" transform="translate(295,84)"/>
<path d="M0 0 C10.71983363 1.72900542 18.98556487 6.6995851 26 15 C28.56435701 18.55701133 29 19.5067471 29 24 C23.60996603 23.4609966 19.67071379 21.54766207 15 19 C14.36449219 18.67773438 13.72898437 18.35546875 13.07421875 18.0234375 C9.04974383 15.90347855 6.63668866 13.67253064 4 10 C3.443125 9.54625 2.88625 9.0925 2.3125 8.625 C0.22759765 6.04369233 0.30385501 3.22086315 0 0 Z " fill="#70793C" transform="translate(316,54)"/>
<path d="M0 0 C12.36498983 -0.46176311 23.69237384 0.47767094 35 6 C35 6.66 35 7.32 35 8 C36.32 8.66 37.64 9.32 39 10 C36.39679596 12.60320404 34.48510123 12.31133766 30.93139648 12.38037109 C18.80987934 12.35359397 9.51581178 10.04476841 0 2 C0 1.34 0 0.68 0 0 Z " fill="#747C42" transform="translate(344,199)"/>
<path d="M0 0 C-6.03987736 5.40410079 -12.8162493 10.77462556 -21 12 C-21 12.66 -21 13.32 -21 14 C-24.00313748 15.50156874 -26.79067522 15.09281204 -30.125 15.0625 C-31.40632812 15.05347656 -32.68765625 15.04445313 -34.0078125 15.03515625 C-35.48894531 15.01775391 -35.48894531 15.01775391 -37 15 C-34.50191019 8.8981085 -28.50189665 4.82545676 -22.796875 1.8515625 C-16.03799733 -0.67675841 -6.90342709 -2.30114236 0 0 Z " fill="#767E44" transform="translate(276,90)"/>
<path d="M0 0 C6.05138695 1.32835323 8.95705798 4.63085483 13 9 C13.721875 9.66 14.44375 10.32 15.1875 11 C20.27396279 16.6126486 21.66475218 21.60778548 22 29 C13.9844879 26.49515247 8.30935288 21.00269843 4 14 C4 13.34 4 12.68 4 12 C3.34 12 2.68 12 2 12 C0.00214565 7.8794254 -0.17835515 4.54805635 0 0 Z " fill="#757D43" transform="translate(272,193)"/>
<path d="M0 0 C-2.5769252 6.31762307 -8.89100035 9.58720288 -14.87109375 12.3046875 C-22.1678753 14.95982448 -29.269042 15.75061426 -37 16 C-25.82830663 4.08352707 -16.42137542 -0.76181639 0 0 Z " fill="#70783C" transform="translate(411,175)"/>
<path d="M0 0 C10.97777046 3.91364366 16.96902775 11.93805549 22 22 C22.04022391 24.3329866 22.04320247 26.66706666 22 29 C12.82146739 26.4185377 6.64831572 17.81419562 2 10 C0.39348095 6.44346276 -0.22360246 3.91304311 0 0 Z " fill="#727A3F" transform="translate(357,58)"/>
<path d="M0 0 C1.4540625 0.0309375 1.4540625 0.0309375 2.9375 0.0625 C2.6075 2.3725 2.2775 4.6825 1.9375 7.0625 C4.2475 7.0625 6.5575 7.0625 8.9375 7.0625 C8.6075 8.0525 8.2775 9.0425 7.9375 10.0625 C5.6275 10.0625 3.3175 10.0625 0.9375 10.0625 C-0.0525 15.3425 -1.0425 20.6225 -2.0625 26.0625 C-0.7425 25.4025 0.5775 24.7425 1.9375 24.0625 C2.9275 24.0625 3.9175 24.0625 4.9375 24.0625 C4.125 26 4.125 26 2.9375 28.0625 C-0.58309568 29.23603189 -3.368993 29.26396402 -7.0625 29.0625 C-7.7225 28.4025 -8.3825 27.7425 -9.0625 27.0625 C-8.74405994 21.01213888 -7.14648334 15.72464342 -5.0625 10.0625 C-6.7125 10.0625 -8.3625 10.0625 -10.0625 10.0625 C-10.0625 9.0725 -10.0625 8.0825 -10.0625 7.0625 C-8.0825 7.0625 -6.1025 7.0625 -4.0625 7.0625 C-4.083125 6.093125 -4.10375 5.12375 -4.125 4.125 C-4.0425 0.0825 -4.0425 0.0825 0 0 Z " fill="#B2A933" transform="translate(182.0625,117.9375)"/>
<path d="M0 0 C1.2065625 0.0309375 1.2065625 0.0309375 2.4375 0.0625 C2.4375 2.3725 2.4375 4.6825 2.4375 7.0625 C4.7475 7.0625 7.0575 7.0625 9.4375 7.0625 C9.1075 8.0525 8.7775 9.0425 8.4375 10.0625 C5.7975 10.0625 3.1575 10.0625 0.4375 10.0625 C0.37691406 10.64257812 0.31632812 11.22265625 0.25390625 11.8203125 C-0.22266561 16.26342863 -0.77258666 20.66155423 -1.5625 25.0625 C1.9025 24.5675 1.9025 24.5675 5.4375 24.0625 C4.4375 27.0625 4.4375 27.0625 2.875 28.25 C-0.71143902 29.44547967 -3.78635169 29.24821221 -7.5625 29.0625 C-7.8925 28.7325 -8.2225 28.4025 -8.5625 28.0625 C-8.40596124 21.88523953 -7.2100806 15.99379014 -5.5625 10.0625 C-6.8825 10.0625 -8.2025 10.0625 -9.5625 10.0625 C-9.5625 9.0725 -9.5625 8.0825 -9.5625 7.0625 C-7.9125 7.0625 -6.2625 7.0625 -4.5625 7.0625 C-4.418125 6.093125 -4.27375 5.12375 -4.125 4.125 C-3.3825 0.0825 -3.3825 0.0825 0 0 Z " fill="#A9A01A" transform="translate(118.5625,117.9375)"/>
<path d="M0 0 C1 3 1 3 0 6 C-1.32 6 -2.64 6 -4 6 C-4 5.01 -4 4.02 -4 3 C-5.65 3 -7.3 3 -9 3 C-7.92292435 6.42705888 -6.99189317 8.00754123 -4.3125 10.5 C-2 13 -2 13 -1.875 15.5625 C-3.59630652 19.29199746 -6.38321287 21.19160643 -10 23 C-11.49756871 23.09499503 -12.99942932 23.12987198 -14.5 23.125 C-15.2940625 23.12757813 -16.088125 23.13015625 -16.90625 23.1328125 C-19 23 -19 23 -21 22 C-20.34 20.68 -19.68 19.36 -19 18 C-15.37 18 -11.74 18 -8 18 C-9.52534407 15.25438068 -10.85656843 13.13113744 -13.1875 11 C-15 9 -15 9 -15.5625 6.5 C-15 4 -15 4 -13.125 1.6875 C-8.7364953 -0.68229254 -4.88510148 -0.34148282 0 0 Z " fill="#ACA323" transform="translate(212,125)"/>
<path d="M0 0 C0.66 1.98 1.32 3.96 2 6 C2.63615234 5.3503125 2.63615234 5.3503125 3.28515625 4.6875 C6.63890417 1.50328219 8.18370188 0.07774268 12.9375 -0.375 C13.948125 -0.25125 14.95875 -0.1275 16 0 C15.5 1.8125 15.5 1.8125 14 4 C12.05682008 4.65870506 10.11340158 5.3167288 8.16796875 5.96875 C3.55295842 8.16399816 0.09636922 12.40769589 -1.87890625 17.078125 C-2.51800937 19.16064328 -2.51800937 19.16064328 -3 22 C-4.98 22 -6.96 22 -9 22 C-7.68 16.06 -6.36 10.12 -5 4 C-8.465 5.485 -8.465 5.485 -12 7 C-11.8125 5.1875 -11.8125 5.1875 -11 3 C-7.33874929 0.07099943 -4.6175429 -0.32215416 0 0 Z " fill="#AAA11A" transform="translate(91,125)"/>
<path d="M0 0 C0 2.97 0 5.94 0 9 C-0.33 9 -0.66 9 -1 9 C-1 6.69 -1 4.38 -1 2 C-2.65 2.33 -4.3 2.66 -6 3 C-5.7525 4.9490625 -5.7525 4.9490625 -5.5 6.9375 C-4.9684362 11.65419287 -4.92470459 16.25638935 -5 21 C-7.97 21 -10.94 21 -14 21 C-13.4938592 18.97543679 -12.98659235 16.9508386 -12.4375 14.9375 C-11.88986956 12.84332634 -11.88986956 12.84332634 -12 10 C-11.05273046 8.30280873 -10.05771739 6.63064764 -9 5 C-12.0699155 5 -14.1471742 5.00793625 -17 6 C-18.87749098 7.96907591 -20.25489438 9.96858138 -21.67578125 12.28515625 C-22.33126953 13.13400391 -22.33126953 13.13400391 -23 14 C-23.99 14 -24.98 14 -26 14 C-25.92478893 10.84113505 -25.62522327 8.69915712 -23.48046875 6.30078125 C-18.95079122 2.36234584 -15.58978372 0.95272235 -9.5625 0.4375 C-8.61503906 0.35371094 -7.66757812 0.26992187 -6.69140625 0.18359375 C-4.46527149 0.0317384 -2.23130814 0 0 0 Z " fill="#C1B856" transform="translate(71,115)"/>
<path d="M0 0 C1.125 3.75 1.125 3.75 0 6 C-0.99 6 -1.98 6 -3 6 C-3 5.01 -3 4.02 -3 3 C-4.98 3 -6.96 3 -9 3 C-7.93618144 6.38487723 -6.98809081 8.01134208 -4.375 10.5 C-2 13 -2 13 -1.375 15.5625 C-2.28260391 19.10215525 -3.96710127 20.04236442 -7 22 C-10.33203125 22.390625 -10.33203125 22.390625 -13.8125 22.25 C-14.97394531 22.21390625 -16.13539063 22.1778125 -17.33203125 22.140625 C-18.21246094 22.09421875 -19.09289062 22.0478125 -20 22 C-19.34 20.68 -18.68 19.36 -18 18 C-14.37 18 -10.74 18 -7 18 C-8.70768529 13.86761721 -8.70768529 13.86761721 -12.125 11.5625 C-15 9 -15 9 -15.6875 6.4375 C-15 4 -15 4 -13.125 1.6875 C-8.7364953 -0.68229254 -4.88510148 -0.34148282 0 0 Z " fill="#ABA11D" transform="translate(167,125)"/>
<path d="M0 0 C0.66 0 1.32 0 2 0 C3.26660762 1.64421131 4.46305546 3.3427295 5.625 5.0625 C12.18125687 14.27669884 20.7919297 21.10288519 31 26 C31 26.99 31 27.98 31 29 C32.98 28.67 34.96 28.34 37 28 C37 28.66 37 29.32 37 30 C45.25 31.65 53.5 33.3 62 35 C58.23057221 37.51295186 56.48481041 37.3255844 52 37 C49.2293444 36.3574205 46.56378616 35.48502304 43.875 34.5625 C39.60927969 33.13926435 35.42594931 31.83493183 31 31 C30.34 30.67 29.68 30.34 29 30 C28.67 31.32 28.34 32.64 28 34 C27.34 31.36 26.68 28.72 26 26 C24.68 25.67 23.36 25.34 22 25 C22 24.34 22 23.68 22 23 C20.948125 22.66742188 20.948125 22.66742188 19.875 22.328125 C16.34262421 20.69632097 13.79249122 18.39365285 11 15.75 C10.23816406 15.05197266 10.23816406 15.05197266 9.4609375 14.33984375 C5.99294833 11.11194614 2.8098398 7.82220855 0 4 C0 2.68 0 1.36 0 0 Z " fill="#8E946D" transform="translate(243,163)"/>
<path d="M0 0 C-0.73690113 6.48472993 -2.35318751 12.69239743 -4 19 C-3.05125 18.34 -2.1025 17.68 -1.125 17 C2 15 2 15 4 15 C2.49223521 19.22174141 -0.15164062 20.88717524 -4 23 C-6.8125 23.3125 -6.8125 23.3125 -9 23 C-10.52384778 21.47615222 -10.16908901 20.12094628 -10.1875 18 C-10.14851868 13.14292726 -9.23915513 8.68002338 -8 4 C-9.65 4 -11.3 4 -13 4 C-13 3.34 -13 2.68 -13 2 C-11.58461283 1.66127487 -10.16762037 1.32925376 -8.75 1 C-7.56664062 0.7215625 -7.56664062 0.7215625 -6.359375 0.4375 C-4 0 -4 0 0 0 Z " fill="#AFA635" transform="translate(144,125)"/>
<path d="M0 0 C1.2065625 0.0309375 1.2065625 0.0309375 2.4375 0.0625 C2.52314209 0.77905762 2.60878418 1.49561523 2.69702148 2.23388672 C3.0858426 5.46889937 3.48034855 8.70319367 3.875 11.9375 C4.07706055 13.62939453 4.07706055 13.62939453 4.28320312 15.35546875 C4.41533203 16.43183594 4.54746094 17.50820312 4.68359375 18.6171875 C4.86426392 20.10968018 4.86426392 20.10968018 5.04858398 21.63232422 C5.31295305 24.06361629 5.31295305 24.06361629 6.4375 26.0625 C8.96483235 26.71805119 8.96483235 26.71805119 11.4375 27.0625 C11.4375 28.0525 11.4375 29.0425 11.4375 30.0625 C7.8075 30.0625 4.1775 30.0625 0.4375 30.0625 C-1.08946388 23.40930022 -2.01642307 16.77893499 -2.75 10 C-2.84587402 9.14237061 -2.94174805 8.28474121 -3.04052734 7.40112305 C-3.2590295 5.29238702 -3.41641979 3.17748733 -3.5625 1.0625 C-2.5625 0.0625 -2.5625 0.0625 0 0 Z " fill="#A89E13" transform="translate(67.5625,116.9375)"/>
<path d="M0 0 C8 0 16 0 24 0 C24.33 2.97 24.66 5.94 25 9 C25.99 9.33 26.98 9.66 28 10 C26.3125 11.5625 26.3125 11.5625 24 13 C21.25 12.6875 21.25 12.6875 19 12 C19.33 9.03 19.66 6.06 20 3 C19.34 3 18.68 3 18 3 C16.47700477 5.93720508 15.19899698 8.9168649 14 12 C13.01 12 12.02 12 11 12 C10.875 5.375 10.875 5.375 12 2 C9.47636012 2.62533375 9.47636012 2.62533375 7 4 C6.10613836 6.54775306 6.10613836 6.54775306 6 9 C5.34 9 4.68 9 4 9 C3.67 6.36 3.34 3.72 3 1 C2.01 0.67 1.02 0.34 0 0 Z " fill="#AFA530" transform="translate(294,135)"/>
<path d="M0 0 C0.99 0.33 1.98 0.66 3 1 C3 2.65 3 4.3 3 6 C3.99 6.33 4.98 6.66 6 7 C5.34 7 4.68 7 4 7 C4 7.66 4 8.32 4 9 C3.01 9.495 3.01 9.495 2 10 C1.27306096 11.97888961 0.60183749 13.97954558 0 16 C-1.64630328 15.85957123 -3.29204179 15.71250671 -4.9375 15.5625 C-6.31228516 15.44068359 -6.31228516 15.44068359 -7.71484375 15.31640625 C-10 15 -10 15 -11 14 C-11.46491904 5.78643022 -11.46491904 5.78643022 -9 3 C-5.5625 2.125 -5.5625 2.125 -2 2 C-1.01 2.66 -0.02 3.32 1 4 C0.67 2.68 0.34 1.36 0 0 Z " fill="#FEFDF7" transform="translate(260,129)"/>
<path d="M0 0 C1.32 0 2.64 0 4 0 C3.35689646 7.20275961 2.15116573 13.13177903 -2.25 19 C-5.70950935 21.5160068 -7.81618986 21.41017747 -12 21 C-12 20.34 -12 19.68 -12 19 C-10.88625 18.773125 -9.7725 18.54625 -8.625 18.3125 C-4.83961627 17.39376342 -4.83961627 17.39376342 -3.5625 14.375 C-3.376875 13.59125 -3.19125 12.8075 -3 12 C-4.98 12.33 -6.96 12.66 -9 13 C-9.33 10.03 -9.66 7.06 -10 4 C-10.99 4 -11.98 4 -13 4 C-12.67 3.01 -12.34 2.02 -12 1 C-10.35 1 -8.7 1 -7 1 C-5.64560332 3.70879335 -5.93498549 6.00933268 -6 9 C-2.91910327 6.22719294 -1.31224548 3.93673644 0 0 Z " fill="#AEA42D" transform="translate(336,134)"/>
<path d="M0 0 C5 0 10 0 15 0 C15 2.97 15 5.94 15 9 C15.99 9 16.98 9 18 9 C18 9.66 18 10.32 18 11 C15.04335481 12.4783226 12.25770263 12.06032783 9 12 C9 9.36 9 6.72 9 4 C6.0459281 8.26577569 6.0459281 8.26577569 4 13 C2.68 13 1.36 13 0 13 C0.33 9.7 0.66 6.4 1 3 C0.01 3.33 -0.98 3.66 -2 4 C-1.34 2.68 -0.68 1.36 0 0 Z " fill="#B5AB3C" transform="translate(384,135)"/>
<path d="M0 0 C4.33333333 0 8.66666667 0 13 0 C13 2.97 13 5.94 13 9 C13.66 9 14.32 9 15 9 C15 9.66 15 10.32 15 11 C12.29120665 12.35439668 9.99066732 12.06501451 7 12 C7 9.36 7 6.72 7 4 C3.53028623 8.02347588 3.53028623 8.02347588 2 13 C0.68 13 -0.64 13 -2 13 C-1.48041715 8.62065881 -0.94324258 4.31196609 0 0 Z " fill="#B2A735" transform="translate(367,135)"/>
<path d="M0 0 C3.3 0 6.6 0 10 0 C9.67 0.99 9.34 1.98 9 3 C8.01 3 7.02 3 6 3 C5.95101563 3.60328125 5.90203125 4.2065625 5.8515625 4.828125 C5.77679688 5.62734375 5.70203125 6.4265625 5.625 7.25 C5.55539062 8.03890625 5.48578125 8.8278125 5.4140625 9.640625 C4.98492887 12.085877 4.21399362 13.84836903 3 16 C3.66 16.33 4.32 16.66 5 17 C4.67 17.66 4.34 18.32 4 19 C0.7 19 -2.6 19 -6 19 C-4 15 -4 15 -1 14 C0.03038956 11.43957934 0.03038956 11.43957934 0.6875 8.4375 C0.93886719 7.42558594 1.19023437 6.41367188 1.44921875 5.37109375 C1.63097656 4.58863281 1.81273437 3.80617187 2 3 C1.01 3 0.02 3 -1 3 C-0.67 2.01 -0.34 1.02 0 0 Z " fill="#AFA531" transform="translate(355,129)"/>
<path d="M0 0 C-0.33 0.99 -0.66 1.98 -1 3 C-2.98 3 -4.96 3 -7 3 C-7.12375 3.886875 -7.2475 4.77375 -7.375 5.6875 C-7.94820549 8.72548911 -8.83367573 11.1570846 -10 14 C-10.36871088 15.65919896 -10.71281674 17.3247643 -11 19 C-9.68 18.67 -8.36 18.34 -7 18 C-7.66 18.99 -8.32 19.98 -9 21 C-12.125 21.1875 -12.125 21.1875 -15 21 C-16.71718827 15.97606404 -14.77069199 11.79174104 -13 7 C-9.8299977 0.65999539 -6.96876712 -0.26297234 0 0 Z " fill="#ADA22B" transform="translate(293,126)"/>
<path d="M0 0 C0.15597656 0.62648438 0.31195313 1.25296875 0.47265625 1.8984375 C1.96582988 4.42254826 1.96582988 4.42254826 5.80859375 4.9765625 C7.34896901 5.21047626 8.89223408 5.42594015 10.4375 5.625 C11.97878051 5.83988392 13.51920731 6.06100525 15.05859375 6.2890625 C16.08424438 6.42368896 16.08424438 6.42368896 17.13061523 6.56103516 C19 7 19 7 22 9 C17.51352456 10.28921708 14.14038598 9.62333077 9.625 8.625 C2.41649122 7.05410297 -4.35437581 5.86111504 -11.75 6 C-15.24602586 6.06504234 -17.67395672 6.10868109 -21 5 C-21 5.66 -21 6.32 -21 7 C-24.63 6.67 -28.26 6.34 -32 6 C-27.96184058 3.98092029 -26.09731422 3.71030135 -21.703125 3.5859375 C-20.49785156 3.54726562 -19.29257812 3.50859375 -18.05078125 3.46875 C-16.16939453 3.42234375 -16.16939453 3.42234375 -14.25 3.375 C-12.98027344 3.33632812 -11.71054687 3.29765625 -10.40234375 3.2578125 C-7.2683743 3.16355778 -4.13441051 3.07794834 -1 3 C-0.67 2.01 -0.34 1.02 0 0 Z " fill="#8E936E" transform="translate(345,75)"/>
<path d="M0 0 C0.33 1.32 0.66 2.64 1 4 C-0.216875 3.7525 -1.43375 3.505 -2.6875 3.25 C-5.95788312 2.86080698 -6.90028268 2.95221878 -10 4.4375 C-12.86874547 8.11308013 -12.38156769 10.42118774 -12 15 C-10.02 15.66 -8.04 16.32 -6 17 C-6 17.33 -6 17.66 -6 18 C-7.45742463 18.08096803 -8.91612807 18.13917774 -10.375 18.1875 C-11.18710938 18.22230469 -11.99921875 18.25710937 -12.8359375 18.29296875 C-13.55007812 18.19628906 -14.26421875 18.09960938 -15 18 C-17.35208618 14.47187073 -17.66828544 12.45354609 -17.56640625 8.296875 C-16.64880561 4.57584621 -14.50785311 3.05138762 -11.37890625 1.01953125 C-7.56487198 -0.61505487 -4.0625009 -0.50781261 0 0 Z " fill="#B3AA44" transform="translate(260,129)"/>
<path d="M0 0 C0.66 0 1.32 0 2 0 C2 3.96 2 7.92 2 12 C3.32 11.34 4.64 10.68 6 10 C6.99 10 7.98 10 9 10 C8.1875 11.9375 8.1875 11.9375 7 14 C3.47940432 15.17353189 0.693507 15.20146402 -3 15 C-3.66 14.34 -4.32 13.68 -5 13 C-4.96712417 10.27130593 -4.43602229 7.7033382 -4 5 C-3.34 5 -2.68 5 -2 5 C-1.34 3.35 -0.68 1.7 0 0 Z " fill="#B2A93A" transform="translate(178,132)"/>
<path d="M0 0 C0.66 1.98 1.32 3.96 2 6 C2.63615234 5.3503125 2.63615234 5.3503125 3.28515625 4.6875 C6.63890417 1.50328219 8.18370188 0.07774268 12.9375 -0.375 C13.948125 -0.25125 14.95875 -0.1275 16 0 C15.5 1.8125 15.5 1.8125 14 4 C12.03051449 4.91967165 10.03942857 5.59081637 7.9765625 6.2734375 C5.62726438 7.13701349 3.87801393 8.35673781 2 10 C1.34 9.67 0.68 9.34 0 9 C0 6.69 0 4.38 0 2 C-1.65 2 -3.3 2 -5 2 C-5 2.66 -5 3.32 -5 4 C-8.465 5.485 -8.465 5.485 -12 7 C-11.8125 5.1875 -11.8125 5.1875 -11 3 C-7.33874929 0.07099943 -4.6175429 -0.32215416 0 0 Z " fill="#AEA531" transform="translate(91,125)"/>
<path d="M0 0 C0.3125 2.3125 0.3125 2.3125 0 5 C-2.5 6.8125 -2.5 6.8125 -5 8 C-4.34 8.33 -3.68 8.66 -3 9 C-3 9.66 -3 10.32 -3 11 C-11.42857143 13.28571429 -11.42857143 13.28571429 -16 13 C-16 13.66 -16 14.32 -16 15 C-14.35 15 -12.7 15 -11 15 C-11 17.31 -11 19.62 -11 22 C-11.33 22 -11.66 22 -12 22 C-12 20.02 -12 18.04 -12 16 C-12.763125 16.04125 -13.52625 16.0825 -14.3125 16.125 C-17 16 -17 16 -20 14 C-19.67 13.01 -19.34 12.02 -19 11 C-17.948125 11.020625 -16.89625 11.04125 -15.8125 11.0625 C-12.67295096 11.01103198 -10.03116604 10.73482813 -7 10 C-7 9.34 -7 8.68 -7 8 C-7.66 8 -8.32 8 -9 8 C-8.66410006 4.86493389 -7.97334828 3.974751 -5.625 1.75 C-3 0 -3 0 0 0 Z " fill="#F8F7D7" transform="translate(147,114)"/>
<path d="M0 0 C0.62648438 0.22816406 1.25296875 0.45632812 1.8984375 0.69140625 C2.71570313 0.97886719 3.53296875 1.26632813 4.375 1.5625 C5.18710937 1.85253906 5.99921875 2.14257812 6.8359375 2.44140625 C9.02767749 3.25973028 9.02767749 3.25973028 11 2 C11 2.66 11 3.32 11 4 C19.25 5.65 27.5 7.3 36 9 C32.23057221 11.51295186 30.48481041 11.3255844 26 11 C23.2293444 10.3574205 20.56378616 9.48502304 17.875 8.5625 C13.60927969 7.13926435 9.42594931 5.83493183 5 5 C4.34 4.67 3.68 4.34 3 4 C2.67 5.32 2.34 6.64 2 8 C1.34 5.36 0.68 2.72 0 0 Z " fill="#939973" transform="translate(269,189)"/>
<path d="M0 0 C0.33 0.66 0.66 1.32 1 2 C2.04643677 1.75552124 2.04643677 1.75552124 3.11401367 1.50610352 C6.19822786 0.9652376 9.04557204 0.886924 12.17578125 0.90234375 C13.33271484 0.90556641 14.48964844 0.90878906 15.68164062 0.91210938 C16.87982422 0.92048828 18.07800781 0.92886719 19.3125 0.9375 C21.1387793 0.94426758 21.1387793 0.94426758 23.00195312 0.95117188 C26.00135226 0.96293422 29.00065089 0.97937174 32 1 C32 1.33 32 1.66 32 2 C30.74703125 2.06058594 29.4940625 2.12117187 28.203125 2.18359375 C26.55207276 2.26802256 24.90103165 2.35266939 23.25 2.4375 C22.425 2.47681641 21.6 2.51613281 20.75 2.55664062 C19.95078125 2.59853516 19.1515625 2.64042969 18.328125 2.68359375 C17.5949707 2.72025146 16.86181641 2.75690918 16.10644531 2.79467773 C14.01661442 2.94143475 14.01661442 2.94143475 12.109375 3.5 C9.36554131 4.15039021 6.73951655 4.21972247 3.921875 4.31640625 C2.76171875 4.35830078 1.6015625 4.40019531 0.40625 4.44335938 C-0.8003125 4.48267578 -2.006875 4.52199219 -3.25 4.5625 C-4.47203125 4.60568359 -5.6940625 4.64886719 -6.953125 4.69335938 C-9.9686392 4.79937355 -12.98423448 4.90143936 -16 5 C-15.67 4.01 -15.34 3.02 -15 2 C-10.05 2 -5.1 2 0 2 C0 1.34 0 0.68 0 0 Z " fill="#A3A888" transform="translate(323,197)"/>
<path d="M0 0 C0.66 0.33 1.32 0.66 2 1 C1.67 1.66 1.34 2.32 1 3 C2.89575251 3.02721176 4.79161979 3.04649136 6.6875 3.0625 C8.27111328 3.07990234 8.27111328 3.07990234 9.88671875 3.09765625 C12.73743662 3.00823599 15.21913279 2.57784254 18 2 C19.60303627 1.93628632 21.20837672 1.91355786 22.8125 1.9375 C23.60269531 1.94652344 24.39289063 1.95554688 25.20703125 1.96484375 C26.09455078 1.98224609 26.09455078 1.98224609 27 2 C26.01 2.66 25.02 3.32 24 4 C24.66 4.33 25.32 4.66 26 5 C26 5.66 26 6.32 26 7 C24.43765625 6.75443359 24.43765625 6.75443359 22.84375 6.50390625 C16.74531601 5.741602 10.63537364 5.8936759 4.5 5.9375 C3.29601562 5.94201172 2.09203125 5.94652344 0.8515625 5.95117188 C-2.09901073 5.9628805 -5.04947859 5.97928005 -8 6 C-3.35726351 1.23099662 -3.35726351 1.23099662 0 0 Z " fill="#DCDFCC" transform="translate(337,193)"/>
<path d="M0 0 C2 2 2 2 2.125 5.125 C2.08375 6.07375 2.0425 7.0225 2 8 C1.01 8.33 0.02 8.66 -1 9 C-1.33 7.35 -1.66 5.7 -2 4 C-3.65 4 -5.3 4 -7 4 C-7.33 6.64 -7.66 9.28 -8 12 C-8.99 12 -9.98 12 -11 12 C-11.17758833 8.09305679 -11.23513741 5.29388671 -9 2 C-5.54754176 -0.30163882 -4.05261287 -0.34490322 0 0 Z " fill="#A79E26" transform="translate(273,134)"/>
<path d="M0 0 C0.99 0 1.98 0 3 0 C3.09765625 6.15234375 3.09765625 6.15234375 3 8 C2.67 8.33 2.34 8.66 2 9 C1.62947661 14.17735677 1.62947661 14.17735677 3 19 C1.02 19 -0.96 19 -3 19 C-3.23170622 14.25002251 -2.32104911 10.54110632 -1 6 C-0.96377667 4.33372702 -0.95100158 2.66594626 -1 1 C-0.67 0.67 -0.34 0.34 0 0 Z " fill="#A49B04" transform="translate(138,127)"/>
<path d="M0 0 C1.231394 3.69418201 0.64432764 6.2056261 0 10 C1.98 10 3.96 10 6 10 C6 9.67 6 9.34 6 9 C5.34 9 4.68 9 4 9 C4.33 6.03 4.66 3.06 5 0 C5.33 0 5.66 0 6 0 C6 1.98 6 3.96 6 6 C6.99 6 7.98 6 9 6 C9.33 5.34 9.66 4.68 10 4 C10.1875 6.875 10.1875 6.875 10 10 C6.21722246 12.52185169 3.44203329 12.72956472 -1 12 C-3.0625 10.4375 -3.0625 10.4375 -4 8 C-3.6875 4.25 -3.6875 4.25 -3 1 C-2.01 1.33 -1.02 1.66 0 2 C0 1.34 0 0.68 0 0 Z " fill="#F1EDBA" transform="translate(278,136)"/>
<path d="M0 0 C0.33 0.99 0.66 1.98 1 3 C5.455 2.505 5.455 2.505 10 2 C8.68 2.33 7.36 2.66 6 3 C5.67 5.64 5.34 8.28 5 11 C4.67 10.01 4.34 9.02 4 8 C2.68 8 1.36 8 0 8 C0 10.31 0 12.62 0 15 C-2 14 -2 14 -2.6875 12 C-2.790625 11.34 -2.89375 10.68 -3 10 C-2.67 9.67 -2.34 9.34 -2 9 C-1.60851239 7.48834346 -1.26027543 5.96530368 -0.9375 4.4375 C-0.76089844 3.61121094 -0.58429688 2.78492188 -0.40234375 1.93359375 C-0.26957031 1.29550781 -0.13679688 0.65742188 0 0 Z " fill="#F6F3C8" transform="translate(361,132)"/>
<path d="M0 0 C0.90105469 0.01804687 1.80210937 0.03609375 2.73046875 0.0546875 C3.41753906 0.07789062 4.10460937 0.10109375 4.8125 0.125 C5.8125 3.125 5.8125 3.125 4.8125 6.125 C3.4925 6.125 2.1725 6.125 0.8125 6.125 C0.8125 5.135 0.8125 4.145 0.8125 3.125 C-0.8375 3.125 -2.4875 3.125 -4.1875 3.125 C-3.5275 5.105 -2.8675 7.085 -2.1875 9.125 C-3.5075 8.795 -4.8275 8.465 -6.1875 8.125 C-6.1875 6.475 -6.1875 4.825 -6.1875 3.125 C-6.8475 2.795 -7.5075 2.465 -8.1875 2.125 C-4.87379 -0.08414 -3.8428979 -0.09981553 0 0 Z " fill="#B4AB41" transform="translate(207.1875,124.875)"/>
<path d="M0 0 C2.01822917 0.06510417 4.03645833 0.13020833 6.0546875 0.1953125 C7.00927399 8.54794426 7.16508084 16.79315285 7.0546875 25.1953125 C7.7146875 25.1953125 8.3746875 25.1953125 9.0546875 25.1953125 C9.0546875 26.5153125 9.0546875 27.8353125 9.0546875 29.1953125 C10.0446875 29.5253125 11.0346875 29.8553125 12.0546875 30.1953125 C10.4046875 29.8653125 8.7546875 29.5353125 7.0546875 29.1953125 C5.18206569 22.88442954 4.80572672 17.25569853 4.9296875 10.6953125 C4.93871094 9.7775 4.94773437 8.8596875 4.95703125 7.9140625 C4.98036144 5.67436412 5.01622298 3.43480209 5.0546875 1.1953125 C0.5996875 1.6903125 0.5996875 1.6903125 -3.9453125 2.1953125 C-1.9453125 0.1953125 -1.9453125 0.1953125 0 0 Z " fill="#F2EFC1" transform="translate(65.9453125,113.8046875)"/>
<path d="M0 0 C3.63 0 7.26 0 11 0 C11 0.66 11 1.32 11 2 C11.66 2.33 12.32 2.66 13 3 C9.99060247 4.73830497 7.84057335 5.251248 4.375 5.1875 C3.21097656 5.17783203 3.21097656 5.17783203 2.0234375 5.16796875 C0 5 0 5 -2 4 C-1.34 2.68 -0.68 1.36 0 0 Z " fill="#B9B24A" transform="translate(193,143)"/>
<path d="M0 0 C0.33 0 0.66 0 1 0 C1 2.97 1 5.94 1 9 C1.99 8.67 2.98 8.34 4 8 C4.33 6.02 4.66 4.04 5 2 C5.33 2 5.66 2 6 2 C6 3.65 6 5.3 6 7 C9.465 6.505 9.465 6.505 13 6 C12 9 12 9 10.4375 10.1875 C6.85106098 11.38297967 3.77614831 11.18571221 0 11 C-0.33 10.67 -0.66 10.34 -1 10 C-0.91036938 8.30858344 -0.75422324 6.62040398 -0.5625 4.9375 C-0.46066406 4.01839844 -0.35882813 3.09929687 -0.25390625 2.15234375 C-0.17011719 1.44207031 -0.08632812 0.73179687 0 0 Z " fill="#B2A93C" transform="translate(111,136)"/>
<path d="M0 0 C1.125 3.75 1.125 3.75 0 6 C-0.99 6 -1.98 6 -3 6 C-3 5.01 -3 4.02 -3 3 C-4.98 3 -6.96 3 -9 3 C-9.33 3.99 -9.66 4.98 -10 6 C-10.33 5.34 -10.66 4.68 -11 4 C-13.51083114 5.25541557 -13.87125446 6.50063488 -15 9 C-15.3125 6.75 -15.3125 6.75 -15 4 C-10.87863267 -1.08301971 -6.00430634 -0.4197185 0 0 Z " fill="#B3A93E" transform="translate(167,125)"/>
<path d="M0 0 C0.33 1.32 0.66 2.64 1 4 C-0.98 5.65 -2.96 7.3 -5 9 C-3.68 9.66 -2.36 10.32 -1 11 C-2.8253125 11.2165625 -2.8253125 11.2165625 -4.6875 11.4375 C-7.82670377 11.82780953 -10.9075134 12.32351856 -14 13 C-12.8542083 9.5626249 -11.72965547 9.03251567 -8.765625 7.18359375 C-5.61633847 5.07245698 -2.83153766 2.51319911 0 0 Z " fill="#E7E9D6" transform="translate(380,181)"/>
<path d="M0 0 C-0.33 3.3 -0.66 6.6 -1 10 C-0.01 10.33 0.98 10.66 2 11 C0.35 11 -1.3 11 -3 11 C-3.33 10.01 -3.66 9.02 -4 8 C-5.0209375 8.7425 -5.0209375 8.7425 -6.0625 9.5 C-9.59465009 11.30365111 -12.08636991 11.23021353 -16 11 C-16 10.67 -16 10.34 -16 10 C-14.741875 9.79375 -13.48375 9.5875 -12.1875 9.375 C-9.97263004 8.90050719 -9.97263004 8.90050719 -8 8 C-6.1244258 5.08289958 -6.1244258 5.08289958 -5 2 C-2 0 -2 0 0 0 Z " fill="#F3F1CC" transform="translate(306,137)"/>
<path d="M0 0 C1.98 0 3.96 0 6 0 C5.67 0.99 5.34 1.98 5 3 C5.99 3 6.98 3 8 3 C8 4.65 8 6.3 8 8 C7.67 7.01 7.34 6.02 7 5 C5.68 5 4.36 5 3 5 C3.99 6.485 3.99 6.485 5 8 C4.625 10.1875 4.625 10.1875 4 12 C2 11 2 11 1 10 C0.67 10 0.34 10 0 10 C0 6.7 0 3.4 0 0 Z " fill="#F2EFCB" transform="translate(318,135)"/>
<path d="M0 0 C0.721875 0.103125 1.44375 0.20625 2.1875 0.3125 C1.589375 1.034375 0.99125 1.75625 0.375 2.5 C-1.84866504 5.20327575 -1.84866504 5.20327575 -3.3125 8.0625 C-4.8125 10.3125 -4.8125 10.3125 -7 11.125 C-7.598125 11.186875 -8.19625 11.24875 -8.8125 11.3125 C-8.54066925 7.41625918 -8.00155227 5.55406679 -5.5625 2.4375 C-2.8125 0.3125 -2.8125 0.3125 0 0 Z " fill="#B2A839" transform="translate(53.8125,117.6875)"/>
<path d="M0 0 C1.98 0.495 1.98 0.495 4 1 C3.01 2.485 3.01 2.485 2 4 C3.32 3.34 4.64 2.68 6 2 C5.53199289 6.05606165 5.12046792 9.46588679 3 13 C2.67 11.68 2.34 10.36 2 9 C1.01 9.33 0.02 9.66 -1 10 C-0.67 6.7 -0.34 3.4 0 0 Z " fill="#F7F5D0" transform="translate(380,135)"/>
<path d="M0 0 C1.95803507 -0.05389087 3.91648909 -0.09274217 5.875 -0.125 C7.51082031 -0.15980469 7.51082031 -0.15980469 9.1796875 -0.1953125 C12 0 12 0 14 2 C10.36804504 4.42130331 8.61650652 4.21022785 4.3125 4.125 C3.13300781 4.10695312 1.95351562 4.08890625 0.73828125 4.0703125 C-0.16535156 4.04710937 -1.06898438 4.02390625 -2 4 C-1.34 2.68 -0.68 1.36 0 0 Z " fill="#B0A83D" transform="translate(149,143)"/>
<path d="M0 0 C1.98 0 3.96 0 6 0 C5.7357513 5.37305699 5.7357513 5.37305699 5 8 C2.4375 10 2.4375 10 0 11 C0 7.37 0 3.74 0 0 Z " fill="#A79D0F" transform="translate(178,119)"/>
<path d="M0 0 C1.98 0 3.96 0 6 0 C5.67 3.63 5.34 7.26 5 11 C3.68 10.67 2.36 10.34 1 10 C0.67 6.7 0.34 3.4 0 0 Z " fill="#A99F20" transform="translate(220,115)"/>
<path d="M0 0 C0.75410156 0.13083984 1.50820313 0.26167969 2.28515625 0.39648438 C5.8373725 1.0495117 8.21055273 1.66120182 11.25 3.6875 C6.76352456 4.97671708 3.39038598 4.31083077 -1.125 3.3125 C-5.99914821 2.25031291 -10.80844265 1.33871298 -15.75 0.6875 C-15.75 0.3575 -15.75 0.0275 -15.75 -0.3125 C-10.13265521 -1.41962219 -5.59632138 -1.07922079 0 0 Z " fill="#8F946E" transform="translate(355.75,80.3125)"/>
<path d="M0 0 C0.66 0 1.32 0 2 0 C3.37422638 1.74477149 4.67586622 3.54715813 5.9375 5.375 C8.93506278 9.71611502 8.93506278 9.71611502 13 13 C13 13.99 13 14.98 13 16 C9.87250593 14.61536056 7.7595015 13.00477577 5.375 10.5625 C4.78460938 9.96566406 4.19421875 9.36882812 3.5859375 8.75390625 C0.7324956 5.59825253 0 4.36948424 0 0 Z " fill="#868C61" transform="translate(243,163)"/>
<path d="M0 0 C0.8353125 0.433125 0.8353125 0.433125 1.6875 0.875 C4.72942835 2.35485704 7.66073437 2.61470012 11 3 C10.67 3.99 10.34 4.98 10 6 C8.39620659 6.05416188 6.79188594 6.09286638 5.1875 6.125 C4.29417969 6.14820313 3.40085937 6.17140625 2.48046875 6.1953125 C0 6 0 6 -3 4 C-2.67 3.01 -2.34 2.02 -2 1 C-1.34 0.67 -0.68 0.34 0 0 Z " fill="#AEA530" transform="translate(35,142)"/>
<path d="M0 0 C0.8212254 2.29943113 1.13426962 3.58376417 0.375 5.9375 C-1.43260703 8.64891055 -3.64052971 10.76471235 -6 13 C-6.33 12.34 -6.66 11.68 -7 11 C-9.31 11 -11.62 11 -14 11 C-14 10.67 -14 10.34 -14 10 C-13.06027344 9.85304687 -13.06027344 9.85304687 -12.1015625 9.703125 C-11.28429688 9.55359375 -10.46703125 9.4040625 -9.625 9.25 C-8.81289063 9.11078125 -8.00078125 8.9715625 -7.1640625 8.828125 C-4.84807696 8.19389897 -4.84807696 8.19389897 -3.8125 6.0625 C-3.544375 5.381875 -3.27625 4.70125 -3 4 C-2.02418241 2.64886795 -1.02970259 1.31053056 0 0 Z " fill="#B9AF45" transform="translate(53,134)"/>
<path d="M0 0 C3.3 0 6.6 0 10 0 C10.33 1.65 10.66 3.3 11 5 C12.98 5.66 14.96 6.32 17 7 C17 7.99 17 8.98 17 10 C16.34 9.34 15.68 8.68 15 8 C12.78927023 7.75746187 12.78927023 7.75746187 10.375 7.875 C9.14910156 7.90207031 9.14910156 7.90207031 7.8984375 7.9296875 C6.95871094 7.96449219 6.95871094 7.96449219 6 8 C6 7.01 6 6.02 6 5 C6.99 4.01 7.98 3.02 9 2 C6.03 2 3.06 2 0 2 C0 1.34 0 0.68 0 0 Z " fill="#FCFADD" transform="translate(356,127)"/>
<path d="M0 0 C0.66 0 1.32 0 2 0 C2 2.97 2 5.94 2 9 C3.98 9 5.96 9 8 9 C8 9.66 8 10.32 8 11 C4.625 11.125 4.625 11.125 1 11 C0.34 10.34 -0.32 9.68 -1 9 C-1.66 9.66 -2.32 10.32 -3 11 C-5.625 11.125 -5.625 11.125 -8 11 C-6.68 10.67 -5.36 10.34 -4 10 C-3.566875 8.3603125 -3.566875 8.3603125 -3.125 6.6875 C-2 3 -2 3 0 0 Z " fill="#FDFCE4" transform="translate(312,138)"/>
<path d="M0 0 C1.65 0 3.3 0 5 0 C5 0.99 5 1.98 5 3 C6.32 3 7.64 3 9 3 C9.33 2.01 9.66 1.02 10 0 C9.67 1.65 9.34 3.3 9 5 C8.01 5 7.02 5 6 5 C6.33 6.65 6.66 8.3 7 10 C5.82174642 9.09827532 4.65768423 8.17798498 3.5 7.25 C2.8503125 6.73953125 2.200625 6.2290625 1.53125 5.703125 C0 4 0 4 0 0 Z " fill="#FBF9DF" transform="translate(203,128)"/>
<path d="M0 0 C2.09350689 3.4019487 2.17942163 6.05272412 2 10 C-0.31 10 -2.62 10 -5 10 C-4.49701212 5.59885603 -2.91227269 3.28804981 0 0 Z " fill="#FCFADD" transform="translate(63,125)"/>
<path d="M0 0 C3 1 3 1 4.25 2.5625 C5.3813806 6.23948695 4.62965552 9.2220669 4 13 C2.68 13 1.36 13 0 13 C0.33 9.7 0.66 6.4 1 3 C0.01 3.33 -0.98 3.66 -2 4 C-1.34 2.68 -0.68 1.36 0 0 Z " fill="#B8AF48" transform="translate(384,135)"/>
<path d="M0 0 C0.33 0 0.66 0 1 0 C1 4.29 1 8.58 1 13 C-0.32 13 -1.64 13 -3 13 C-3.27131956 7.66404866 -3.4266889 4.38616179 0 0 Z " fill="#A59B04" transform="translate(178,132)"/>
<path d="M0 0 C5.77378925 0.4811491 9.95859836 2.18467181 15 5 C15 5.33 15 5.66 15 6 C13.329375 6.2165625 13.329375 6.2165625 11.625 6.4375 C8.17857953 6.78372035 8.17857953 6.78372035 6 8 C6 7.01 6 6.02 6 5 C4.35 5 2.7 5 1 5 C1.99 4.34 2.98 3.68 4 3 C2.68 2.34 1.36 1.68 0 1 C0 0.67 0 0.34 0 0 Z " fill="#858C5D" transform="translate(365,84)"/>
<path d="M0 0 C0.33 0 0.66 0 1 0 C1 2.64 1 5.28 1 8 C5.40966229 7.51003752 6.97445364 6.12314463 10 3 C12.25 2.25 12.25 2.25 14 2 C12.49223521 6.22174141 9.84835938 7.88717524 6 10 C3.1875 10.3125 3.1875 10.3125 1 10 C0 9 0 9 -0.09765625 6.93359375 C-0.08605469 6.10988281 -0.07445312 5.28617188 -0.0625 4.4375 C-0.05347656 3.61121094 -0.04445312 2.78492188 -0.03515625 1.93359375 C-0.02355469 1.29550781 -0.01195312 0.65742188 0 0 Z " fill="#C0B959" transform="translate(134,138)"/>
<path d="M0 0 C0.99 0.66 1.98 1.32 3 2 C3 2.99 3 3.98 3 5 C1.4221875 5.2165625 1.4221875 5.2165625 -0.1875 5.4375 C-4.62826368 6.05354854 -4.62826368 6.05354854 -9 7 C-9.33 7.66 -9.66 8.32 -10 9 C-11.65 9 -13.3 9 -15 9 C-13.02 6.69 -11.04 4.38 -9 2 C-8.67 2.66 -8.34 3.32 -8 4 C-5.36 4 -2.72 4 0 4 C0 2.68 0 1.36 0 0 Z " fill="#F1EEBC" transform="translate(157,138)"/>
<path d="M0 0 C1.08410156 -0.00257812 2.16820312 -0.00515625 3.28515625 -0.0078125 C5.9375 0.125 5.9375 0.125 6.9375 1.125 C6.97842937 3.45797433 6.97991723 5.79205225 6.9375 8.125 C4.44657189 9.37046405 3.52669267 8.9017578 0.9375 8.125 C0.9375 7.135 0.9375 6.145 0.9375 5.125 C-0.7125 5.125 -2.3625 5.125 -4.0625 5.125 C-4.0625 4.795 -4.0625 4.465 -4.0625 4.125 C-2.0825 4.125 -0.1025 4.125 1.9375 4.125 C1.9375 5.115 1.9375 6.105 1.9375 7.125 C2.9275 7.125 3.9175 7.125 4.9375 7.125 C4.9375 5.475 4.9375 3.825 4.9375 2.125 C3.33370659 2.07083812 1.72938594 2.03213362 0.125 2 C-0.76832031 1.97679688 -1.66164062 1.95359375 -2.58203125 1.9296875 C-5.31652714 1.94214173 -5.31652714 1.94214173 -8.0625 4.125 C-8.0625 3.135 -8.0625 2.145 -8.0625 1.125 C-5.31744537 -0.24752731 -3.05922588 -0.00729255 0 0 Z " fill="#F5F1C5" transform="translate(162.0625,123.875)"/>
<path d="M0 0 C0.33 0 0.66 0 1 0 C0.835 1.175625 0.67 2.35125 0.5 3.5625 C0.01271488 7.41273873 -0.08077957 11.12258073 0 15 C-0.66 15 -1.32 15 -2 15 C-2.33 15.66 -2.66 16.32 -3 17 C-2.67 14.36 -2.34 11.72 -2 9 C-3.32 9 -4.64 9 -6 9 C-6 8.01 -6 7.02 -6 6 C-4.35 6 -2.7 6 -1 6 C-0.67 4.02 -0.34 2.04 0 0 Z " fill="#B7AE45" transform="translate(115,119)"/>
<path d="M0 0 C1.98 0 3.96 0 6 0 C5.67 2.31 5.34 4.62 5 7 C7.31 7 9.62 7 12 7 C11.67 7.99 11.34 8.98 11 10 C8.69 10 6.38 10 4 10 C3.67 10.66 3.34 11.32 3 12 C3.66 8.37 4.32 4.74 5 1 C3.35 1 1.7 1 0 1 C0 0.67 0 0.34 0 0 Z " fill="#BBB253" transform="translate(179,118)"/>
<path d="M0 0 C5 2 5 2 10 4 C10 4.33 10 4.66 10 5 C2.74 5 -4.52 5 -12 5 C-12 4.67 -12 4.34 -12 4 C-6.06 3.505 -6.06 3.505 0 3 C0 2.01 0 1.02 0 0 Z " fill="#D2D6B8" transform="translate(334,74)"/>
<path d="M0 0 C1.15941038 3.47823115 0.70820884 5.45895578 0 9 C2.64 8.67 5.28 8.34 8 8 C7.67 8.66 7.34 9.32 7 10 C4.36 10 1.72 10 -1 10 C-1.33 8.68 -1.66 7.36 -2 6 C-2.66 7.32 -3.32 8.64 -4 10 C-4.8125 8.375 -4.8125 8.375 -5 6 C-3.53181864 3.75390165 -1.84147142 1.97621323 0 0 Z " fill="#F1EDB9" transform="translate(374,138)"/>
<path d="M0 0 C0.66 0 1.32 0 2 0 C2.020625 1.093125 2.04125 2.18625 2.0625 3.3125 C2.56114043 6.95732337 2.56114043 6.95732337 4.625 8.1328125 C6.78223035 9.06424734 6.78223035 9.06424734 10 10 C10 10.33 10 10.66 10 11 C8.52093108 11.02689216 7.04172517 11.04634621 5.5625 11.0625 C4.32693359 11.07990234 4.32693359 11.07990234 3.06640625 11.09765625 C1 11 1 11 0 10 C-0.07205511 8.31391034 -0.08386068 6.62499341 -0.0625 4.9375 C-0.05347656 4.01839844 -0.04445312 3.09929687 -0.03515625 2.15234375 C-0.02355469 1.44207031 -0.01195312 0.73179687 0 0 Z " fill="#A9A028" transform="translate(244,136)"/>
<path d="M0 0 C0.99 0 1.98 0 3 0 C3.125 2.875 3.125 2.875 3 6 C2.34 6.66 1.68 7.32 1 8 C0.01 8 -0.98 8 -2 8 C-2.125 5.125 -2.125 5.125 -2 2 C-1.34 1.34 -0.68 0.68 0 0 Z " fill="#FCFAD4" transform="translate(294,137)"/>
<path d="M0 0 C1.32 0.66 2.64 1.32 4 2 C4 2.66 4 3.32 4 4 C-2.76594019 4.11381955 -9.28837062 3.88021369 -16 3 C-16 2.67 -16 2.34 -16 2 C-10.72 2 -5.44 2 0 2 C0 1.34 0 0.68 0 0 Z " fill="#989F76" transform="translate(305,78)"/>
<path d="M0 0 C-0.33 2.31 -0.66 4.62 -1 7 C-2.32 7.33 -3.64 7.66 -5 8 C-5 5.69 -5 3.38 -5 1 C-2 0 -2 0 0 0 Z " fill="#F9F6D0" transform="translate(271,137)"/>
<path d="M0 0 C-0.33 0.99 -0.66 1.98 -1 3 C-2.98 3 -4.96 3 -7 3 C-7.33 4.98 -7.66 6.96 -8 9 C-8.185625 8.071875 -8.185625 8.071875 -8.375 7.125 C-8.87197356 4.80879168 -8.87197356 4.80879168 -11 3 C-7.48550811 -0.37391222 -4.73940561 -0.27342725 0 0 Z " fill="#C8C175" transform="translate(293,126)"/>
<path d="M0 0 C3.96 0 7.92 0 12 0 C8.23312136 1.88343932 6.97041037 2.22057835 3 2 C3 2.66 3 3.32 3 4 C4.65 4 6.3 4 8 4 C8 6.31 8 8.62 8 11 C7.67 11 7.34 11 7 11 C7 9.02 7 7.04 7 5 C6.236875 5.04125 5.47375 5.0825 4.6875 5.125 C2 5 2 5 -1 3 C-0.67 2.01 -0.34 1.02 0 0 Z " fill="#F0ECBD" transform="translate(128,125)"/>
<path d="M0 0 C5.75 0.75 5.75 0.75 8 3 C2.39 3.66 -3.22 4.32 -9 5 C-6.23776722 2.23776722 -3.79293383 2.42143709 0 2 C0 1.34 0 0.68 0 0 Z " fill="#DEE1CA" transform="translate(363,85)"/>
<path d="M0 0 C4.04420651 1.77945087 7.46078487 4.39529673 11 7 C10.67 8.32 10.34 9.64 10 11 C8.32742645 9.5484451 6.66208242 8.08855591 5 6.625 C3.6078125 5.40683594 3.6078125 5.40683594 2.1875 4.1640625 C1.465625 3.44992188 0.74375 2.73578125 0 2 C0 1.34 0 0.68 0 0 Z " fill="#868C62" transform="translate(389,96)"/>
<path d="M0 0 C1.75091019 0.08754551 3.50079551 0.19573373 5.25 0.3125 C6.22453125 0.37050781 7.1990625 0.42851563 8.203125 0.48828125 C11.25341611 1.04636524 12.70711276 1.96369776 15 4 C13.35 4.66 11.7 5.32 10 6 C10 5.67 10 5.34 10 5 C7.69 4.67 5.38 4.34 3 4 C3 3.34 3 2.68 3 2 C2.01 1.67 1.02 1.34 0 1 C0 0.67 0 0.34 0 0 Z " fill="#DCDFCB" transform="translate(306,78)"/>
<path d="M0 0 C3.96 0 7.92 0 12 0 C11.67 1.32 11.34 2.64 11 4 C11 3.34 11 2.68 11 2 C9.58297487 2.14230808 8.1663904 2.28900746 6.75 2.4375 C5.96109375 2.51871094 5.1721875 2.59992188 4.359375 2.68359375 C2.17635361 2.97634993 0.1226818 3.42064419 -2 4 C-1.34 2.68 -0.68 1.36 0 0 Z " fill="#F5F1CA" transform="translate(54,138)"/>
<path d="M0 0 C1.65 0 3.3 0 5 0 C5 0.66 5 1.32 5 2 C5.66 2 6.32 2 7 2 C5.84826645 4.46800047 4.95216435 6.04783565 3 8 C0.4345406 5.4345406 0.45953913 3.52313332 0 0 Z " fill="#A9A021" transform="translate(386,135)"/>
<path d="M0 0 C-0.625 2.375 -0.625 2.375 -2 5 C-5.125 6.3125 -5.125 6.3125 -8 7 C-7.62005832 4.24542282 -7.1926367 3.17979426 -5.125 1.25 C-3 0 -3 0 0 0 Z " fill="#B6AF4F" transform="translate(147,114)"/>
<path d="M0 0 C0.66 0.33 1.32 0.66 2 1 C0.54782324 2.50596108 -0.91192861 4.00462104 -2.375 5.5 C-3.18710937 6.3353125 -3.99921875 7.170625 -4.8359375 8.03125 C-7 10 -7 10 -9 10 C-9 10.66 -9 11.32 -9 12 C-9.66 12 -10.32 12 -11 12 C-9.49650623 8.33213607 -7.36271208 6.31089607 -4.375 3.75 C-3.14910156 2.69039063 -3.14910156 2.69039063 -1.8984375 1.609375 C-1.27195312 1.07828125 -0.64546875 0.5471875 0 0 Z " fill="#838958" transform="translate(279,90)"/>
<path d="M0 0 C-0.99 0.33 -1.98 0.66 -3 1 C-2.34 1.33 -1.68 1.66 -1 2 C-1 2.66 -1 3.32 -1 4 C-2.258125 3.87625 -3.51625 3.7525 -4.8125 3.625 C-5.87404297 3.52058594 -5.87404297 3.52058594 -6.95703125 3.4140625 C-9 3 -9 3 -12 1 C-3.96428571 -1.27678571 -3.96428571 -1.27678571 0 0 Z " fill="#E4E6D2" transform="translate(364,196)"/>
<path d="M0 0 C-2.475 4.455 -2.475 4.455 -5 9 C-5.33 7.68 -5.66 6.36 -6 5 C-5.34 5 -4.68 5 -4 5 C-4 4.01 -4 3.02 -4 2 C-5.98 2.33 -7.96 2.66 -10 3 C-8.0130571 -0.97388579 -3.91761109 -0.08705802 0 0 Z " fill="#FAF7CC" transform="translate(63,119)"/>
<path d="M0 0 C-1.44781793 3.44428265 -3.27694609 5.36130962 -6.125 7.75 C-7.21167969 8.67039063 -7.21167969 8.67039063 -8.3203125 9.609375 C-8.87460937 10.06828125 -9.42890625 10.5271875 -10 11 C-10 8 -10 8 -8.3203125 5.95703125 C-7.23363281 4.89548828 -7.23363281 4.89548828 -6.125 3.8125 C-5.40570313 3.09707031 -4.68640625 2.38164062 -3.9453125 1.64453125 C-2 0 -2 0 0 0 Z " fill="#899061" transform="translate(372,176)"/>
<path d="M0 0 C1.98 0 3.96 0 6 0 C7.125 6.75 7.125 6.75 6 9 C5.34 9 4.68 9 4 9 C3.67 6.36 3.34 3.72 3 1 C2.01 0.67 1.02 0.34 0 0 Z " fill="#A79D22" transform="translate(294,135)"/>
<path d="M0 0 C-0.33 3.3 -0.66 6.6 -1 10 C-0.01 10.33 0.98 10.66 2 11 C0.68 11 -0.64 11 -2 11 C-2.33 8.69 -2.66 6.38 -3 4 C-3.33 4.99 -3.66 5.98 -4 7 C-4.66 7 -5.32 7 -6 7 C-5.6875 4.625 -5.6875 4.625 -5 2 C-2 0 -2 0 0 0 Z " fill="#E6E0A3" transform="translate(306,137)"/>
<path d="M0 0 C0.33 0.99 0.66 1.98 1 3 C5.455 2.505 5.455 2.505 10 2 C8.68 2.33 7.36 2.66 6 3 C6 3.66 6 4.32 6 5 C3.625 6.0625 3.625 6.0625 1 7 C0.34 6.67 -0.32 6.34 -1 6 C-0.67 4.02 -0.34 2.04 0 0 Z " fill="#D7D190" transform="translate(361,132)"/>
<path d="M0 0 C0.66 0 1.32 0 2 0 C2 1.98 2 3.96 2 6 C0.3745692 5.85904936 -1.25034051 5.71207913 -2.875 5.5625 C-3.77992188 5.48128906 -4.68484375 5.40007812 -5.6171875 5.31640625 C-8 5 -8 5 -10 4 C-6.75366476 1.8357765 -5.75698557 1.62430144 -2 2 C-1.01 2.66 -0.02 3.32 1 4 C0.67 2.68 0.34 1.36 0 0 Z " fill="#EAE5AE" transform="translate(260,129)"/>
<path d="M0 0 C2.31 0 4.62 0 7 0 C6.34 1.32 5.68 2.64 5 4 C2.69 4 0.38 4 -2 4 C-1.34 2.68 -0.68 1.36 0 0 Z " fill="#ABA12E" transform="translate(100,125)"/>
<path d="M0 0 C0.33 0 0.66 0 1 0 C1 2.31 1 4.62 1 7 C2.98 7 4.96 7 7 7 C6.67 7.99 6.34 8.98 6 10 C6 9.34 6 8.68 6 8 C5.401875 8.33 4.80375 8.66 4.1875 9 C2 10 2 10 -1 10 C-0.67 6.7 -0.34 3.4 0 0 Z " fill="#F1EEC0" transform="translate(181,134)"/>
<path d="M0 0 C3.3 0 6.6 0 10 0 C9.01 0.33 8.02 0.66 7 1 C7 1.66 7 2.32 7 3 C7.99 3.33 8.98 3.66 10 4 C2.25 3.125 2.25 3.125 0 2 C0 1.34 0 0.68 0 0 Z " fill="#E0E4CA" transform="translate(280,191)"/>
<path d="M0 0 C1.10844919 3.32534757 0.84454356 5.62182575 0 9 C-0.66 8.34 -1.32 7.68 -2 7 C-2.33 7.66 -2.66 8.32 -3 9 C-3.66 9 -4.32 9 -5 9 C-3.90931332 5.22454612 -3.0916909 2.52956528 0 0 Z " fill="#F6F2C0" transform="translate(393,138)"/>
<path d="M0 0 C2.475 0.99 2.475 0.99 5 2 C4.96519531 2.62648437 4.93039062 3.25296875 4.89453125 3.8984375 C4.86746094 4.71570313 4.84039062 5.53296875 4.8125 6.375 C4.77769531 7.18710938 4.74289062 7.99921875 4.70703125 8.8359375 C4.80371094 9.55007812 4.90039062 10.26421875 5 11 C5.99 11.66 6.98 12.32 8 13 C6.35 12.67 4.7 12.34 3 12 C3.33 9.03 3.66 6.06 4 3 C3.34 3 2.68 3 2 3 C1.67 3.66 1.34 4.32 1 5 C0.67 3.35 0.34 1.7 0 0 Z " fill="#BCB34E" transform="translate(310,135)"/>
<path d="M0 0 C0.33 0 0.66 0 1 0 C1 1.98 1 3.96 1 6 C1.99 6 2.98 6 4 6 C4.33 5.34 4.66 4.68 5 4 C5 5.65 5 7.3 5 9 C3.02 9 1.04 9 -1 9 C-0.67 6.03 -0.34 3.06 0 0 Z " fill="#E2DC9A" transform="translate(283,136)"/>
<path d="M0 0 C0.33 0 0.66 0 1 0 C1 2.97 1 5.94 1 9 C2.98 9 4.96 9 7 9 C6.67 9.66 6.34 10.32 6 11 C3.69 11 1.38 11 -1 11 C-0.67 7.37 -0.34 3.74 0 0 Z " fill="#F3F1C5" transform="translate(118,132)"/>
<path d="M0 0 C0.33 1.32 0.66 2.64 1 4 C0.01 4.66 -0.98 5.32 -2 6 C-2.33 5.01 -2.66 4.02 -3 3 C-4.00836062 1.76732652 -4.00836062 1.76732652 -6.06640625 1.90234375 C-7.30197266 1.91974609 -7.30197266 1.91974609 -8.5625 1.9375 C-9.80193359 1.95103516 -9.80193359 1.95103516 -11.06640625 1.96484375 C-12.02353516 1.98224609 -12.02353516 1.98224609 -13 2 C-13 1.67 -13 1.34 -13 1 C-8.60563789 0.14256349 -4.47427924 -0.08948558 0 0 Z " fill="#C3C6AA" transform="translate(277,88)"/>
<path d="M0 0 C0.33 0 0.66 0 1 0 C1 1.65 1 3.3 1 5 C-0.32 5.33 -1.64 5.66 -3 6 C-3 6.66 -3 7.32 -3 8 C-0.69 8 1.62 8 4 8 C4 8.33 4 8.66 4 9 C0.7 9 -2.6 9 -6 9 C-4 5 -4 5 -1 4 C-0.26676204 1.98491642 -0.26676204 1.98491642 0 0 Z " fill="#C2B960" transform="translate(355,139)"/>
<path d="M0 0 C0.33 0 0.66 0 1 0 C1.33 2.97 1.66 5.94 2 9 C4.97 9.495 4.97 9.495 8 10 C8 10.33 8 10.66 8 11 C1.84765625 11.09765625 1.84765625 11.09765625 0 11 C-0.33 10.67 -0.66 10.34 -1 10 C-0.91036938 8.30858344 -0.75422324 6.62040398 -0.5625 4.9375 C-0.46066406 4.01839844 -0.35882813 3.09929687 -0.25390625 2.15234375 C-0.17011719 1.44207031 -0.08632812 0.73179687 0 0 Z " fill="#B9B14B" transform="translate(111,136)"/>
<path d="M0 0 C0.33 0 0.66 0 1 0 C1 1.65 1 3.3 1 5 C2.98 5 4.96 5 7 5 C7 6.65 7 8.3 7 10 C6.34 9.67 5.68 9.34 5 9 C5.33 8.34 5.66 7.68 6 7 C3.69 7 1.38 7 -1 7 C-0.67 4.69 -0.34 2.38 0 0 Z " fill="#F8F5CB" transform="translate(185,118)"/>
<path d="M0 0 C1.33998047 0.31324219 1.33998047 0.31324219 2.70703125 0.6328125 C3.60808594 0.83648437 4.50914062 1.04015625 5.4375 1.25 C6.46810547 1.50136719 6.46810547 1.50136719 7.51953125 1.7578125 C6.85953125 2.4178125 6.19953125 3.0778125 5.51953125 3.7578125 C2.91796875 3.515625 2.91796875 3.515625 -0.10546875 2.8828125 C-1.10835938 2.67914063 -2.11125 2.47546875 -3.14453125 2.265625 C-4.30082031 2.01425781 -4.30082031 2.01425781 -5.48046875 1.7578125 C-2.48046875 -0.2421875 -2.48046875 -0.2421875 0 0 Z " fill="#9CA180" transform="translate(359.48046875,81.2421875)"/>
<path d="M0 0 C1.98 0 3.96 0 6 0 C5.67 0.99 5.34 1.98 5 3 C6.32 3.33 7.64 3.66 9 4 C7.68 4 6.36 4 5 4 C4.67 4.99 4.34 5.98 4 7 C2.02 3.535 2.02 3.535 0 0 Z " fill="#828A59" transform="translate(302,199)"/>
<path d="M0 0 C0.33 0.66 0.66 1.32 1 2 C0.67 2.66 0.34 3.32 0 4 C2.97 3.34 5.94 2.68 9 2 C5.8388984 5.1611016 5.4438418 5.38812741 1.3125 5.6875 C0.50425781 5.75324219 -0.30398438 5.81898438 -1.13671875 5.88671875 C-2.05904297 5.94279297 -2.05904297 5.94279297 -3 6 C-2.01 4.02 -1.02 2.04 0 0 Z " fill="#9BA17A" transform="translate(358,190)"/>
<path d="M0 0 C3.96 1.98 3.96 1.98 8 4 C8 4.66 8 5.32 8 6 C5.525 5.01 5.525 5.01 3 4 C2.67 5.32 2.34 6.64 2 8 C1.34 5.36 0.68 2.72 0 0 Z " fill="#9FA578" transform="translate(269,189)"/>
<path d="M0 0 C0.33 1.32 0.66 2.64 1 4 C1.66 4 2.32 4 3 4 C3.66 2.68 4.32 1.36 5 0 C5.33 0.66 5.66 1.32 6 2 C6.99 2 7.98 2 9 2 C9 2.66 9 3.32 9 4 C6.04335481 5.4783226 3.25770263 5.06032783 0 5 C0 3.35 0 1.7 0 0 Z " fill="#B9B154" transform="translate(393,142)"/>
<path d="M0 0 C3.3 0.33 6.6 0.66 10 1 C10 1.66 10 2.32 10 3 C6.7 3 3.4 3 0 3 C0 2.01 0 1.02 0 0 Z " fill="#AAA227" transform="translate(149,143)"/>
<path d="M0 0 C0.99 0 1.98 0 3 0 C2.67 2.64 2.34 5.28 2 8 C1.01 8 0.02 8 -1 8 C-1.125 2.25 -1.125 2.25 0 0 Z " fill="#A89D1F" transform="translate(263,138)"/>
<path d="M0 0 C1.32 0 2.64 0 4 0 C3.48594831 4.96916636 2.76615118 9.29026351 1 14 C-0.09898702 10.70303895 0.12875556 9.59505097 0.9375 6.3125 C1.13214844 5.50425781 1.32679688 4.69601563 1.52734375 3.86328125 C1.68332031 3.24839844 1.83929688 2.63351563 2 2 C1.34 2 0.68 2 0 2 C0 1.34 0 0.68 0 0 Z " fill="#C1B95E" transform="translate(336,134)"/>
<path d="M0 0 C0.66 0.33 1.32 0.66 2 1 C1.67 1.33 1.34 1.66 1 2 C2.65 2.33 4.3 2.66 6 3 C6 3.33 6 3.66 6 4 C4.906875 4.309375 3.81375 4.61875 2.6875 4.9375 C0.44592006 5.58337897 -1.7869351 6.2623117 -4 7 C-3.43628586 3.73045798 -2.50037734 2.17424117 0 0 Z " fill="#B6AC42" transform="translate(98,126)"/>
<path d="M0 0 C0.33 0 0.66 0 1 0 C1 1.65 1 3.3 1 5 C1.66 5 2.32 5 3 5 C3.33 3.68 3.66 2.36 4 1 C5.32 1.66 6.64 2.32 8 3 C8 3.66 8 4.32 8 5 C5.29120665 6.35439668 2.99066732 6.06501451 0 6 C0 4.02 0 2.04 0 0 Z " fill="#B7AF4A" transform="translate(374,141)"/>
<path d="M0 0 C0.33 0.66 0.66 1.32 1 2 C-0.2739589 4.03833424 -1.61061923 6.03852126 -3 8 C-3.66 8 -4.32 8 -5 8 C-5 6.02 -5 4.04 -5 2 C-4.67 2.66 -4.34 3.32 -4 4 C-3.34 4 -2.68 4 -2 4 C-2 3.01 -2 2.02 -2 1 C-1.34 0.67 -0.68 0.34 0 0 Z " fill="#F8F5CB" transform="translate(335,135)"/>
<path d="M0 0 C-0.33 1.32 -0.66 2.64 -1 4 C-2.32 4.33 -3.64 4.66 -5 5 C-5 4.01 -5 3.02 -5 2 C-6.65 2 -8.3 2 -10 2 C-10 1.67 -10 1.34 -10 1 C-2.25 0 -2.25 0 0 0 Z " fill="#EEF0E3" transform="translate(282,86)"/>
<path d="M0 0 C3.3 0.66 6.6 1.32 10 2 C10 2.33 10 2.66 10 3 C3.565 3.495 3.565 3.495 -3 4 C-2.01 2.68 -1.02 1.36 0 0 Z " fill="#888E63" transform="translate(377,187)"/>
<path d="M0 0 C0.66 0 1.32 0 2 0 C0.61811547 3.21043882 -0.92421903 5.04936365 -3.625 7.25 C-4.57246094 8.03117188 -4.57246094 8.03117188 -5.5390625 8.828125 C-6.02117187 9.21484375 -6.50328125 9.6015625 -7 10 C-5.15014033 6.06048404 -2.92434659 3.21678125 0 0 Z " fill="#8E9468" transform="translate(334,182)"/>
<path d="M0 0 C0.66 0 1.32 0 2 0 C1.67 2.97 1.34 5.94 1 9 C0.34 9 -0.32 9 -1 9 C-1.125 2.25 -1.125 2.25 0 0 Z " fill="#A69B11" transform="translate(376,137)"/>
<path d="M0 0 C0.33 1.32 0.66 2.64 1 4 C-1.98646769 5.99097846 -4.59687262 6.94124926 -8 8 C-5.33333333 5.33333333 -2.66666667 2.66666667 0 0 Z " fill="#D7DAC1" transform="translate(380,181)"/>
<path d="M0 0 C0 3 0 3 -1.625 5.1875 C-4.60499012 7.46170299 -6.33924624 7.3327958 -10 7 C-7.96153279 5.64102186 -5.91973686 4.28702633 -3.875 2.9375 C-1.21312042 1.27685736 -1.21312042 1.27685736 0 0 Z " fill="#F2F0C7" transform="translate(209,142)"/>
<path d="M0 0 C-1.0975223 2.99324263 -1.67682892 3.84610901 -4.625 5.25 C-5.40875 5.4975 -6.1925 5.745 -7 6 C-7.33 5.34 -7.66 4.68 -8 4 C-2.25 0 -2.25 0 0 0 Z " fill="#B5AD4C" transform="translate(148,140)"/>
<path d="M0 0 C0.66 0.33 1.32 0.66 2 1 C-0.64 3.64 -3.28 6.28 -6 9 C-6.33 8.01 -6.66 7.02 -7 6 C-4.69 4.02 -2.38 2.04 0 0 Z " fill="#848B5B" transform="translate(248,95)"/>
<path d="M0 0 C0.33 0.66 0.66 1.32 1 2 C2.32 1.67 3.64 1.34 5 1 C5 1.66 5 2.32 5 3 C1.85069107 4.04976964 -0.38814456 4.10131595 -3.6875 4.0625 C-4.68136719 4.05347656 -5.67523438 4.04445312 -6.69921875 4.03515625 C-7.83810547 4.01775391 -7.83810547 4.01775391 -9 4 C-9 3.67 -9 3.34 -9 3 C-5.92382812 2.70703125 -5.92382812 2.70703125 -2.84765625 2.4140625 C-2.23792969 2.27742187 -1.62820313 2.14078125 -1 2 C-0.67 1.34 -0.34 0.68 0 0 Z " fill="#8E946D" transform="translate(323,197)"/>
<path d="M0 0 C0.33 0 0.66 0 1 0 C1.125 7.75 1.125 7.75 0 10 C-0.66 10 -1.32 10 -2 10 C-2 8.02 -2 6.04 -2 4 C-1.34 4 -0.68 4 0 4 C0 2.68 0 1.36 0 0 Z " fill="#A59B10" transform="translate(396,136)"/>
<path d="M0 0 C0.33 1.32 0.66 2.64 1 4 C2.32 4.33 3.64 4.66 5 5 C1.25 8 1.25 8 -1 8 C-0.67 5.36 -0.34 2.72 0 0 Z " fill="#F0ECB7" transform="translate(141,136)"/>
<path d="M0 0 C1.98 0 3.96 0 6 0 C6 1.65 6 3.3 6 5 C5.67 4.34 5.34 3.68 5 3 C3.35 3 1.7 3 0 3 C0 2.01 0 1.02 0 0 Z " fill="#B3A943" transform="translate(172,125)"/>
<path d="M0 0 C-1.36983503 3.16115776 -1.9890638 3.9927092 -5 6 C-5.99 5.34 -6.98 4.68 -8 4 C-2.25 0 -2.25 0 0 0 Z " fill="#E3E6CE" transform="translate(275,92)"/>
<path d="M0 0 C-3.3340947 2.19097652 -6.04179141 3.43454163 -10 4 C-10 3.01 -10 2.02 -10 1 C-3.71428571 -1.42857143 -3.71428571 -1.42857143 0 0 Z " fill="#A4A983" transform="translate(292,85)"/>
<path d="M0 0 C-0.33 1.32 -0.66 2.64 -1 4 C-1.33 3.34 -1.66 2.68 -2 2 C-4.97 2.66 -7.94 3.32 -11 4 C-10 2 -10 2 -6.625 0.875 C-3 0 -3 0 0 0 Z " fill="#9FA37E" transform="translate(387,169)"/>
<path d="M0 0 C0.66 0.99 1.32 1.98 2 3 C-0.95664519 4.4783226 -3.74229737 4.06032783 -7 4 C-7 3.34 -7 2.68 -7 2 C-4.69 1.34 -2.38 0.68 0 0 Z " fill="#B7B160" transform="translate(331,151)"/>
<path d="M0 0 C0.33 0 0.66 0 1 0 C1 1.98 1 3.96 1 6 C1.99 6.33 2.98 6.66 4 7 C3.67 7.99 3.34 8.98 3 10 C3 9.34 3 8.68 3 8 C1.68 8.33 0.36 8.66 -1 9 C-0.67 6.03 -0.34 3.06 0 0 Z " fill="#F2EEC3" transform="translate(399,136)"/>
<path d="M0 0 C-3.32307692 3.93846154 -3.32307692 3.93846154 -6.75 4.25 C-7.4925 4.1675 -8.235 4.085 -9 4 C-9 3.34 -9 2.68 -9 2 C-5.5647952 -0.29013653 -4.014669 -0.17842973 0 0 Z " fill="#C7C06A" transform="translate(273,134)"/>
<path d="M0 0 C0.33 0.99 0.66 1.98 1 3 C-2.465 4.485 -2.465 4.485 -6 6 C-5.6875 4.125 -5.6875 4.125 -5 2 C-2 0 -2 0 0 0 Z " fill="#B3A946" transform="translate(85,126)"/>
<path d="M0 0 C0.99 0.66 1.98 1.32 3 2 C0.36 2.33 -2.28 2.66 -5 3 C-5.66 2.01 -6.32 1.02 -7 0 C-3.8195064 -1.06016453 -3.04021693 -1.04507457 0 0 Z " fill="#BDB55B" transform="translate(60,117)"/>
<path d="M0 0 C0.99 0.66 1.98 1.32 3 2 C3 2.99 3 3.98 3 5 C-0.3 5 -3.6 5 -7 5 C-7 4.67 -7 4.34 -7 4 C-3.535 3.505 -3.535 3.505 0 3 C0 2.01 0 1.02 0 0 Z " fill="#FBF9D5" transform="translate(201,138)"/>
<path d="M0 0 C0.66 0 1.32 0 2 0 C1.67 2.64 1.34 5.28 1 8 C0.34 7.01 -0.32 6.02 -1 5 C-1.99 5.495 -1.99 5.495 -3 6 C-2 4 -1 2 0 0 Z " fill="#F2EEB5" transform="translate(312,138)"/>
<path d="M0 0 C2.31 1.65 4.62 3.3 7 5 C3.37673261 6.2077558 2.35853631 5.54311128 -1 4 C-0.67 2.68 -0.34 1.36 0 0 Z " fill="#DADFC3" transform="translate(368,80)"/>
<path d="M0 0 C0.66 0.33 1.32 0.66 2 1 C0.02579865 3.52259061 -0.96745642 3.9929808 -4.1875 4.6875 C-5.5796875 4.8421875 -5.5796875 4.8421875 -7 5 C-4.63707344 2.47411298 -3.33537489 1.11179163 0 0 Z " fill="#A0A57D" transform="translate(392,177)"/>
<path d="M0 0 C0.33 0 0.66 0 1 0 C1 1.98 1 3.96 1 6 C1.99 6.33 2.98 6.66 4 7 C4 7.33 4 7.66 4 8 C2.02 8 0.04 8 -2 8 C-2 7.34 -2 6.68 -2 6 C-1.34 6 -0.68 6 0 6 C0 4.02 0 2.04 0 0 Z " fill="#C9C268" transform="translate(265,140)"/>
<path d="M0 0 C0.33 0 0.66 0 1 0 C1 2.31 1 4.62 1 7 C0.01 7.33 -0.98 7.66 -2 8 C-1.125 1.125 -1.125 1.125 0 0 Z " fill="#ECE7B5" transform="translate(90,139)"/>
<path d="M0 0 C0.99 0.495 0.99 0.495 2 1 C2.59355614 3.64860427 2.74209269 6.29197322 3 9 C2.34 8.67 1.68 8.34 1 8 C0.40644386 5.35139573 0.25790731 2.70802678 0 0 Z " fill="#A49B10" transform="translate(327,138)"/>
</svg>
